<?xml version="1.0" encoding="utf-8"?>
<!-- Generator: Adobe Illustrator 16.0.0, SVG Export Plug-In . SVG Version: 6.00 Build 0)  -->
<!DOCTYPE svg PUBLIC "-//W3C//DTD SVG 1.1//EN" "http://www.w3.org/Graphics/SVG/1.1/DTD/svg11.dtd">
<svg version="1.1" xmlns="http://www.w3.org/2000/svg" xmlns:xlink="http://www.w3.org/1999/xlink" x="0px" y="0px"
	 width="74.646px" height="63.982px" viewBox="23.594 21.612 74.646 63.982" enable-background="new 23.594 21.612 74.646 63.982"
	 xml:space="preserve">
<g id="svg3025_copy" xmlns:dc="http://purl.org/dc/elements/1.1/" xmlns:cc="http://creativecommons.org/ns#" xmlns:rdf="http://www.w3.org/1999/02/22-rdf-syntax-ns#" xmlns:svg="http://www.w3.org/2000/svg" xmlns:sodipodi="http://sodipodi.sourceforge.net/DTD/sodipodi-0.dtd" xmlns:inkscape="http://www.inkscape.org/namespaces/inkscape" sodipodi:docname="external_link_font_awesome.svg" inkscape:version="0.48.3.1 r9886">
	
		<sodipodi:namedview  inkscape:cy="896" inkscape:cx="896" inkscape:zoom="0.13169643" showgrid="false" guidetolerance="10" gridtolerance="10" objecttolerance="10" bordercolor="#666666" pagecolor="#ffffff" borderopacity="1" id="namedview3031" inkscape:current-layer="svg3025" inkscape:window-maximized="0" inkscape:window-y="25" inkscape:window-x="0" inkscape:window-height="480" inkscape:window-width="640" inkscape:pageshadow="2" inkscape:pageopacity="0">
		</sodipodi:namedview>
	<g id="g3027_1_" transform="matrix(1,0,0,-1,30.372881,1426.9492)" opacity="0.8">
		<path id="path3029_1_" inkscape:connector-curvature="0" d="M63.408,1397.755v-1.665c0-0.413-0.147-0.765-0.44-1.059
			c-0.292-0.293-0.646-0.439-1.059-0.439h-4.328c-0.413,0-0.765,0.146-1.058,0.439c-0.293,0.293-0.44,0.646-0.44,1.059v4.328
			c0,0.413,0.146,0.766,0.44,1.059c0.293,0.293,0.646,0.44,1.058,0.44h3.662c0.049,0,0.089-0.016,0.12-0.047
			c0.031-0.031,0.047-0.071,0.047-0.119v-0.333c0-0.049-0.016-0.089-0.047-0.12c-0.031-0.031-0.071-0.047-0.12-0.047h-3.662
			c-0.229,0-0.425-0.081-0.587-0.244c-0.163-0.163-0.245-0.359-0.245-0.588v-4.328c0-0.229,0.082-0.425,0.245-0.588
			c0.163-0.163,0.359-0.245,0.587-0.245h4.328c0.229,0,0.425,0.082,0.588,0.245c0.163,0.163,0.244,0.359,0.244,0.588v1.665
			c0,0.049,0.016,0.089,0.047,0.12c0.031,0.031,0.071,0.046,0.12,0.046h0.333c0.048,0,0.088-0.016,0.12-0.046
			C63.392,1397.844,63.408,1397.804,63.408,1397.755z M65.405,1402.25v-2.664c0-0.09-0.033-0.167-0.099-0.234
			c-0.066-0.066-0.144-0.099-0.234-0.099c-0.09,0-0.168,0.033-0.234,0.099l-0.916,0.916l-3.392-3.392
			c-0.035-0.034-0.074-0.051-0.12-0.051s-0.084,0.017-0.12,0.051l-0.593,0.593c-0.034,0.035-0.052,0.075-0.052,0.12
			c0,0.045,0.018,0.085,0.052,0.12l3.392,3.391l-0.916,0.916c-0.066,0.066-0.099,0.145-0.099,0.234s0.033,0.168,0.099,0.234
			c0.065,0.065,0.144,0.099,0.233,0.099h2.664c0.09,0,0.168-0.033,0.234-0.099C65.372,1402.418,65.405,1402.34,65.405,1402.25z"/>
	</g>
</g>
<g id="svg3025" xmlns:dc="http://purl.org/dc/elements/1.1/" xmlns:cc="http://creativecommons.org/ns#" xmlns:rdf="http://www.w3.org/1999/02/22-rdf-syntax-ns#" xmlns:svg="http://www.w3.org/2000/svg" xmlns:sodipodi="http://sodipodi.sourceforge.net/DTD/sodipodi-0.dtd" xmlns:inkscape="http://www.inkscape.org/namespaces/inkscape" sodipodi:docname="external_link_font_awesome.svg" inkscape:version="0.48.3.1 r9886">
	
		<sodipodi:namedview  inkscape:cy="896" inkscape:cx="896" inkscape:zoom="0.13169643" showgrid="false" guidetolerance="10" gridtolerance="10" objecttolerance="10" bordercolor="#666666" pagecolor="#ffffff" borderopacity="1" id="namedview3031" inkscape:current-layer="svg3025" inkscape:window-maximized="0" inkscape:window-y="25" inkscape:window-x="0" inkscape:window-height="480" inkscape:window-width="640" inkscape:pageshadow="2" inkscape:pageopacity="0">
		</sodipodi:namedview>
	<g id="g3027_2_" transform="matrix(1,0,0,-1,30.372881,1426.9492)">
		<path id="path3029_2_" inkscape:connector-curvature="0" fill="#FFFFFF" d="M63.651,1398.002v-1.665
			c0-0.413-0.147-0.765-0.44-1.059c-0.292-0.292-0.646-0.439-1.059-0.439h-4.328c-0.413,0-0.766,0.147-1.059,0.439
			c-0.293,0.293-0.44,0.646-0.44,1.059v4.328c0,0.413,0.146,0.766,0.44,1.059c0.293,0.292,0.646,0.439,1.059,0.439h3.662
			c0.049,0,0.089-0.016,0.12-0.047c0.031-0.032,0.047-0.071,0.047-0.12v-0.333c0-0.049-0.016-0.089-0.047-0.12
			c-0.031-0.031-0.071-0.047-0.12-0.047h-3.662c-0.229,0-0.425-0.082-0.588-0.245s-0.245-0.359-0.245-0.588v-4.328
			c0-0.229,0.082-0.425,0.245-0.588c0.163-0.163,0.359-0.244,0.588-0.244h4.328c0.229,0,0.425,0.082,0.588,0.244
			c0.164,0.163,0.245,0.359,0.245,0.588v1.665c0,0.049,0.016,0.089,0.047,0.12c0.031,0.031,0.071,0.046,0.12,0.046h0.333
			c0.048,0,0.088-0.016,0.12-0.046C63.635,1398.091,63.651,1398.051,63.651,1398.002z M65.649,1402.497v-2.664
			c0-0.089-0.033-0.167-0.099-0.233c-0.066-0.066-0.144-0.099-0.233-0.099c-0.091,0-0.168,0.033-0.234,0.099l-0.916,0.915
			l-3.392-3.391c-0.034-0.035-0.074-0.052-0.119-0.052c-0.045,0-0.085,0.017-0.12,0.052l-0.593,0.592
			c-0.035,0.035-0.052,0.075-0.052,0.12s0.018,0.085,0.052,0.12l3.392,3.392l-0.916,0.916c-0.066,0.066-0.099,0.144-0.099,0.234
			c0,0.09,0.033,0.168,0.099,0.234c0.066,0.065,0.144,0.099,0.234,0.099h2.664c0.089,0,0.167-0.033,0.233-0.099
			C65.615,1402.665,65.649,1402.587,65.649,1402.497z"/>
	</g>
</g>
</svg>
